<?xml version="1.0" standalone="no"?>
<!DOCTYPE svg PUBLIC "-//W3C//DTD SVG 20010904//EN"
 "http://www.w3.org/TR/2001/REC-SVG-20010904/DTD/svg10.dtd">
<svg version="1.0" xmlns="http://www.w3.org/2000/svg"
 width="106.000000pt" height="106.000000pt" viewBox="0 0 106.000000 106.000000"
 preserveAspectRatio="xMidYMid meet">
<metadata>
Created by potrace 1.11, written by Peter Selinger 2001-2013
</metadata>
<g transform="translate(0.000000,106.000000) scale(0.100000,-0.100000)"
fill="#000000" stroke="none">
<path d="M310 760 c0 -5 9 -10 19 -10 47 0 51 -18 51 -235 0 -217 -4 -235 -51
-235 -10 0 -19 -4 -19 -10 0 -6 71 -10 193 -10 l193 0 21 65 c24 72 16 84 -18
29 -12 -20 -37 -43 -55 -50 -41 -17 -165 -19 -182 -2 -8 8 -12 47 -12 110 l0
98 73 0 c77 0 103 -11 109 -44 1 -11 8 -21 13 -23 6 -2 10 30 10 82 0 83 -7
106 -20 65 -13 -41 -33 -50 -111 -50 l-74 0 0 100 0 100 79 0 c101 0 128 -10
149 -57 l17 -38 3 39 c2 22 1 50 -2 63 l-6 23 -190 0 c-120 0 -190 -4 -190
-10z"/>
</g>
</svg>
